<?xml version="1.0" encoding="utf-8"?>
<!-- Generator: Adobe Illustrator 16.0.0, SVG Export Plug-In . SVG Version: 6.00 Build 0)  -->
<!DOCTYPE svg PUBLIC "-//W3C//DTD SVG 1.1//EN" "http://www.w3.org/Graphics/SVG/1.1/DTD/svg11.dtd">
<svg version="1.1" id="Layer_1" xmlns="http://www.w3.org/2000/svg" xmlns:xlink="http://www.w3.org/1999/xlink" x="0px" y="0px"
	 width="400px" height="200px" viewBox="0 0 400 200" enable-background="new 0 0 400 200" xml:space="preserve">
<g>
	<g>
		<g>
			<path fill-rule="evenodd" clip-rule="evenodd" fill="#EC1C24" d="M43.595,41.466c0.729,2.767,1.35,5.565,2.208,8.29
				c1.471,4.679,3.065,9.32,4.663,13.958c0.384,1.114,0.965,2.162,1.491,3.225c0.169,0.338,0.449,0.622,0.829,1.128
				c0.394-1.399,0.198-2.52,0.027-3.617c-0.401-2.552-0.844-5.109-0.604-7.699c0.121-1.289,0.523-2.552,0.818-3.821
				c0.032-0.132,0.204-0.233,0.463-0.515c0.231,2.55,0.4,4.926,0.677,7.289c0.28,2.398,0.622,4.79,1.018,7.172
				c0.404,2.417,0.868,4.828,1.379,7.227c0.506,2.359,1.106,4.697,1.662,7.046c0.553,2.342,1.102,4.687,1.746,7.047
				c0.772-1.93,0.723-4.221,2.625-5.767c0.116,0.275,0.236,0.442,0.245,0.613c0.154,3.195,0.424,6.39,0.396,9.583
				c-0.031,3.436-0.352,6.871-0.54,10.307c-0.064,1.229-0.16,2.457-0.16,3.684c-0.001,4.185-0.019,8.367,0.066,12.547
				c0.058,2.825,0.2,5.652,0.461,8.463c0.146,1.568,0.61,3.109,0.937,4.68c1.498,0.162,2.835,0.326,4.173,0.449
				c2.272,0.211,4.421,0.908,6.45,1.883c1.081,0.521,2.034,1.355,2.953,2.158c0.69,0.604,1.06,1.43,0.98,2.418
				c-0.028,0.348,0.115,0.717,0.214,1.066c0.265,0.9,0.575,1.789,0.82,2.697c0.481,1.785-0.253,2.676-2.15,2.652
				c0.446-0.945,0.428-1.152-0.428-1.764c-0.63-0.445-1.317-0.824-2.013-1.166c-0.269-0.129-0.639-0.141-0.941-0.09
				c-0.834,0.154-1.66,0.367-2.794,0.623c0.955,0.586,1.638,1.104,2.4,1.449c2.009,0.912,4.036,1.787,6.085,2.596
				c1.395,0.547,2.746,1.133,3.685,2.34c1.346,1.727,3.188,2.475,5.253,2.885c0.718,0.143,1.55,0.107,2.175,0.879
				c-1.541,0.273-2.9-0.203-4.334-0.439c1.386,1.793,5.916,3.471,9.246,3.475c0,0.084,0,0.164,0,0.246
				c-1.036,0.346-2.044,0.822-3.187,0.682c-2.405-0.301-4.727-0.887-6.943-1.881c-0.234-0.107-0.491-0.166-0.74-0.246
				c0.61,0.877,1.247,1.678,2.019,2.322c0.786,0.652,1.919,0.822,2.635,1.668c-0.268,0.166-0.472,0.285-0.675,0.41
				c-0.903,0-1.807,0-2.709,0c-1.377-0.4-2.64-1.023-3.813-1.852c-0.325-0.227-0.766-0.291-1.165-0.434
				c-0.168,0.885-0.302,1.582-0.436,2.285c-0.328,0-0.658,0-0.985,0c-0.701-0.406-1.428-0.77-2.091-1.229
				c-0.662-0.449-1.259-0.996-1.89-1.502c-0.988,1.475-1.537,1.545-2.86,0.414c-0.369-0.314-0.712-0.656-1.057-0.98
				c-1.178,0.969-1.938,0.838-3.401-0.541c-1.32,0.266-2.507,0.047-3.449-1.029c-0.122-0.141-0.336-0.291-0.507-0.287
				c-1.231,0.016-2.278-0.564-3.368-1.002c-1.945-0.787-3.832-1.711-5.428-3.07c-1.279-1.088-2.563-2.129-4.007-2.996
				c-0.592-0.357-1.124-0.566-1.814-0.545c-2.457,0.096-4.917,0.244-7.374,0.188c-2.886-0.074-5.686,0.195-8.484,0.977
				c-4.444,1.248-8.943,2.295-13.407,3.465c-1.679,0.439-3.234,0.455-4.591-0.807c-0.085-0.08-0.212-0.125-0.328-0.162
				c-1.55-0.473-2.644-1.594-3.772-2.664c-0.643-0.611-1.135-1.328-1.243-2.205c-0.122-1.033-0.592-1.832-1.326-2.518
				c0-1.641,0-3.281,0-4.922c0.158-0.498,0.303-1.002,0.48-1.494c0.33-0.906,0.649-1.82,1.031-2.707
				c0.186-0.436,0.534-0.797,0.743-1.225c0.321-0.652,0.771-1.053,1.535-0.98c0.814,0.08,1.628,0.164,2.439,0.258
				c2.281,0.256,4.583,0.391,6.833,0.805c4.621,0.859,9.261,1.152,13.947,0.898c1.482-0.076,2.918-0.289,4.156-1.08
				c-0.391-0.811-0.651-1.709-1.194-2.381c-0.754-0.938-1.067-1.906-0.8-3.092c-1.156-0.563-1.881-1.462-1.774-2.713
				c0.108-1.285-1.293-1.992-1.07-3.257c0.065-0.36,0.148-0.714,0.23-1.108c-1.804-1.472-1.355-3.207-0.438-5.017
				c-1.035-0.362-1.265-1.12-1.301-2.061c-0.031-0.894,0.17-1.667,0.754-2.286c-1.264-1.992-1.676-2.773-0.294-4.613
				c-1.195-1.977-1.198-2.497-0.029-4.045c-1.172-1.566-0.638-3.428,0.21-4.026c-0.311-1.105-0.591-2.163-0.908-3.211
				c-0.209-0.698-0.038-1.25,0.465-1.546c-0.479-0.549-0.914-1.037-1.337-1.538c-0.512-0.603-0.767-1.261-0.376-2.033
				c0.208-0.41,0.427-0.814,0.653-1.245c-1.235-1.021-1.354-2.536-1.652-3.971c-0.176-0.844,0.615-1.345,0.751-1.928
				c-0.534-1.106-1.084-2.069-1.474-3.097c-0.486-1.283-0.154-1.958,1.122-2.569c-0.182-0.358-0.365-0.714-0.546-1.072
				c-0.486-0.959-0.853-1.951-0.818-3.048c0.04-1.293,0.381-1.532,1.706-1.205c0.065,0.016,0.146-0.03,0.266-0.058
				c-0.198-0.414-0.427-0.806-0.578-1.227c-0.366-1.034-0.767-2.065-1.017-3.128c-0.169-0.726-0.234-1.539,0.583-2.252
				c0.472,0.613,0.91,1.185,1.355,1.753c0.442,0.563,0.652,1.377,1.623,1.541c-0.613-1.735-1.46-3.205-2.439-4.633
				c-1.482-2.156-2.852-4.387-4.235-6.609c-0.257-0.408-0.361-0.915-0.534-1.375c1.819,1.53,3.479,3.098,5.133,4.671
				c1.66,1.578,3.121,3.4,5.377,4.345c-0.016-0.641-0.07-1.254-0.297-1.792c-1.147-2.718-2.378-5.393-4.164-7.771
				c-1.57-2.087-2.606-4.44-3.283-6.953c-0.095-0.348-0.114-0.718-0.166-1.076c0.094-0.03,0.187-0.061,0.279-0.091
				c0.896,1.261,1.777,2.534,2.69,3.782c2.657,3.64,5.324,7.273,7.999,10.898c0.319,0.435,0.66,0.883,1.474,1.032
				c-0.193-0.708-0.28-1.269-0.496-1.777c-0.862-2.035-1.723-4.068-2.656-6.07c-1.264-2.719-2.244-5.534-2.993-8.427
				c-0.322-1.232-0.535-2.521-0.156-3.86c0.413,0.507,0.737,1.045,1,1.61c2.313,4.971,4.602,9.953,6.937,14.912
				c0.467,0.995,1.091,1.92,1.683,2.851c0.146,0.231,0.447,0.364,0.679,0.541c0.079-0.044,0.158-0.09,0.239-0.133
				c-0.025-0.39,0.004-0.792-0.08-1.166c-0.477-2.113-0.986-4.217-1.47-6.328c-0.667-2.91-1.394-5.807-1.945-8.739
				c-0.285-1.514-0.384-3.092,0.114-4.621C43.43,41.466,43.512,41.466,43.595,41.466z"/>
		</g>
	</g>
</g>
<g>
	<path fill="#EC1C24" d="M282.184,146.055l-2.461,2.843c-1.202-0.509-2.034-1.225-2.496-2.149c-0.462,0.439-0.82,0.751-1.074,0.937
		c-0.901,0.646-2.092,0.97-3.57,0.97c-1.895,0-3.361-0.449-4.401-1.348c-1.133-0.944-1.698-2.338-1.698-4.182
		c0-4.054,2.832-6.082,8.495-6.082c0.368,0,0.714,0,1.036,0v-0.72c0-0.938-0.115-1.578-0.346-1.921
		c-0.275-0.457-0.852-0.687-1.727-0.687c-1.427,0-3.131,0.658-5.11,1.976l-1.968-3.327c0.832-0.531,1.791-1.017,2.877-1.455
		c1.71-0.693,3.327-1.04,4.853-1.04c3.096,0,5.003,1.028,5.719,3.084c0.23,0.671,0.335,1.733,0.313,3.189l-0.104,6.273
		c0,0.924,0.092,1.617,0.277,2.079C281.027,145.027,281.49,145.547,282.184,146.055z M275.91,140.232h-0.205
		c-1.389,0-2.355,0.115-2.901,0.347c-0.91,0.393-1.365,1.178-1.365,2.356c0,0.647,0.179,1.196,0.537,1.646s0.861,0.676,1.508,0.676
		c0.878,0,1.687-0.404,2.427-1.213V140.232z"/>
	<path fill="#EC1C24" d="M292.13,147.956c-0.831,0.327-1.756,0.49-2.772,0.49c-2.148,0-3.524-0.81-4.125-2.429
		c-0.277-0.74-0.415-2.071-0.415-3.992v-13.257c0-2.082-0.082-3.864-0.243-5.345l4.749-1.076c0.161,0.901,0.242,2.438,0.242,4.609
		v13.83c0,1.779,0,2.646,0,2.6c0.115,1.225,0.531,1.837,1.248,1.837c0.185,0,0.357-0.023,0.52-0.069L292.13,147.956z"/>
	<path fill="#EC1C24" d="M309.599,138.812c0,2.495-0.566,4.633-1.698,6.412c-1.317,2.079-3.143,3.119-5.477,3.119
		c-1.641,0-2.958-0.543-3.951-1.629c-0.047,0.254-0.208,0.682-0.485,1.282h-4.159c0.3-0.694,0.45-1.955,0.45-3.783v-16.451
		c0-2.059-0.104-3.517-0.312-4.373l4.815-1.11c0.117,1.021,0.176,2.076,0.176,3.166v4.211c0,0.766-0.058,1.287-0.173,1.565
		c0.877-0.947,2.137-1.421,3.777-1.421c2.38,0,4.194,0.947,5.441,2.842C309.067,134.236,309.599,136.293,309.599,138.812z
		 M304.33,138.915c0-1.409-0.069-2.414-0.208-3.016c-0.347-1.502-1.19-2.253-2.53-2.253c-0.9,0-1.779,0.474-2.634,1.421v8.181
		c0.854,0.762,1.721,1.144,2.6,1.144c1.363,0,2.218-0.763,2.564-2.288C304.261,141.503,304.33,140.44,304.33,138.915z"/>
	<path fill="#EC1C24" d="M328.038,146.055l-2.461,2.843c-1.202-0.509-2.034-1.225-2.496-2.149c-0.462,0.439-0.82,0.751-1.074,0.937
		c-0.901,0.646-2.092,0.97-3.57,0.97c-1.895,0-3.361-0.449-4.401-1.348c-1.133-0.944-1.698-2.338-1.698-4.182
		c0-4.054,2.832-6.082,8.495-6.082c0.368,0,0.714,0,1.036,0v-0.72c0-0.938-0.115-1.578-0.346-1.921
		c-0.275-0.457-0.852-0.687-1.727-0.687c-1.427,0-3.131,0.658-5.11,1.976l-1.968-3.327c0.832-0.531,1.791-1.017,2.877-1.455
		c1.71-0.693,3.327-1.04,4.853-1.04c3.096,0,5.003,1.028,5.719,3.084c0.23,0.671,0.335,1.733,0.313,3.189l-0.104,6.273
		c0,0.924,0.092,1.617,0.277,2.079C326.882,145.027,327.345,145.547,328.038,146.055z M321.765,140.232h-0.205
		c-1.389,0-2.355,0.115-2.901,0.347c-0.91,0.393-1.365,1.178-1.365,2.356c0,0.647,0.179,1.196,0.537,1.646s0.861,0.676,1.508,0.676
		c0.878,0,1.687-0.404,2.427-1.213V140.232z"/>
	<path fill="#EC1C24" d="M344.848,147.996h-4.575v-11.542c0-0.854-0.069-1.456-0.208-1.803c-0.208-0.531-0.658-0.797-1.352-0.797
		c-0.971,0-2.045,0.532-3.224,1.595v12.547h-4.645v-12.859c0-1.594-0.208-2.98-0.624-4.159l4.125-1.178
		c0.438,0.763,0.658,1.502,0.658,2.218c0.646-0.462,1.328-0.901,2.045-1.316c0.878-0.509,1.941-0.763,3.188-0.763
		c0.925,0,1.769,0.208,2.53,0.624c0.854,0.484,1.433,1.132,1.733,1.94c0.23,0.624,0.347,1.468,0.347,2.53V147.996z"/>
	<path fill="#EC1C24" d="M354.205,125.363c0,0.809-0.277,1.49-0.831,2.045c-0.555,0.555-1.236,0.832-2.045,0.832
		c-0.786,0-1.456-0.283-2.011-0.85c-0.555-0.565-0.832-1.242-0.832-2.027c0-0.809,0.283-1.49,0.85-2.045
		c0.565-0.555,1.253-0.832,2.063-0.832c0.809,0,1.479,0.277,2.01,0.832S354.205,124.555,354.205,125.363z M353.651,147.996h-4.645
		v-17.467l4.645-0.729V147.996z"/>
	<path fill="#EC1C24" d="M372.472,146.055l-2.461,2.843c-1.202-0.509-2.034-1.225-2.496-2.149c-0.462,0.439-0.82,0.751-1.074,0.937
		c-0.901,0.646-2.092,0.97-3.57,0.97c-1.895,0-3.361-0.449-4.401-1.348c-1.133-0.944-1.698-2.338-1.698-4.182
		c0-4.054,2.832-6.082,8.495-6.082c0.368,0,0.714,0,1.036,0v-0.72c0-0.938-0.115-1.578-0.346-1.921
		c-0.275-0.457-0.852-0.687-1.727-0.687c-1.427,0-3.131,0.658-5.11,1.976l-1.968-3.327c0.832-0.531,1.791-1.017,2.877-1.455
		c1.71-0.693,3.327-1.04,4.853-1.04c3.096,0,5.003,1.028,5.719,3.084c0.23,0.671,0.335,1.733,0.313,3.189l-0.104,6.273
		c0,0.924,0.092,1.617,0.277,2.079C371.315,145.027,371.778,145.547,372.472,146.055z M366.198,140.232h-0.205
		c-1.389,0-2.355,0.115-2.901,0.347c-0.91,0.393-1.365,1.178-1.365,2.356c0,0.647,0.179,1.196,0.537,1.646s0.861,0.676,1.508,0.676
		c0.878,0,1.687-0.404,2.427-1.213V140.232z"/>
</g>
<g>
	<path fill="#706B6D" d="M158.112,118.224h-13.357V83.581c0-2.665-0.138-4.373-0.411-5.126c-0.549-1.57-1.849-2.357-3.904-2.357
		c-2.809,0-5.856,1.469-9.144,4.407v37.719h-13.048V84.175c0-2.726-0.173-4.565-0.517-5.521c-0.623-1.703-2.037-2.556-4.245-2.556
		c-3.037,0-6.073,1.329-9.109,3.988v38.138H91.021v-36.68c0-6.643-0.652-11.13-1.952-13.459l12.432-3.39
		c0.753,1.233,1.369,3.015,1.849,5.342c3.699-3.561,7.979-5.342,12.843-5.342c4.315,0,7.876,1.438,10.685,4.315
		c0.547,0.617,1.233,1.474,2.055,2.569c4.521-4.588,9.486-6.884,14.897-6.884c5.274,0,9.042,1.404,11.302,4.212
		c1.986,2.535,2.98,6.508,2.98,11.918V118.224z"/>
	<path fill="#706B6D" d="M215.339,91.715c0,8.014-1.952,14.522-5.856,19.522c-4.247,5.411-10.274,8.116-18.083,8.116
		c-7.603,0-13.528-2.705-17.774-8.116c-3.904-4.933-5.856-11.303-5.856-19.111c0-7.809,1.952-14.212,5.856-19.213
		c4.246-5.548,10.171-8.322,17.774-8.322c7.67,0,13.665,2.671,17.98,8.014C213.352,77.537,215.339,83.907,215.339,91.715z
		 M200.339,91.662c0-4.808-0.377-8.415-1.13-10.82c-1.302-4.052-3.837-6.08-7.603-6.08c-3.631,0-6.097,2.097-7.397,6.287
		c-0.754,2.405-1.13,6.01-1.13,10.82c0,5.22,0.342,8.964,1.027,11.231c1.233,4.261,3.802,6.39,7.706,6.39
		C197.496,109.49,200.339,103.549,200.339,91.662z"/>
	<path fill="#706B6D" d="M261.368,108.668l-3.288,9.556h-38.734v-8.528l24.795-34.111H221.4v-9.658h39.043v9.452l-23.221,33.289
		H261.368z"/>
	<path fill="#706B6D" d="M284.074,51.131c0,2.398-0.822,4.418-2.466,6.062c-1.645,1.644-3.665,2.466-6.063,2.466
		c-2.329,0-4.315-0.838-5.959-2.517c-1.644-1.678-2.466-3.681-2.466-6.011c0-2.396,0.838-4.418,2.518-6.062
		c1.678-1.644,3.715-2.466,6.113-2.466c2.396,0,4.382,0.822,5.959,2.466C283.285,46.713,284.074,48.735,284.074,51.131z
		 M282.43,118.224h-13.768V66.445l13.768-2.163V118.224z"/>
	<path fill="#706B6D" d="M316.746,118.104c-2.466,0.97-5.206,1.454-8.22,1.454c-6.37,0-10.445-2.399-12.226-7.201
		c-0.822-2.194-1.233-6.139-1.233-11.832V61.226c0-6.173-0.241-11.454-0.719-15.843l14.075-3.19c0.479,2.671,0.72,7.228,0.72,13.665
		v40.995c0,5.275,0,7.844,0,7.706c0.342,3.631,1.574,5.445,3.698,5.445c0.548,0,1.062-0.067,1.541-0.205L316.746,118.104z"/>
	<path fill="#706B6D" d="M344.691,118.104c-2.466,0.97-5.206,1.454-8.22,1.454c-6.37,0-10.445-2.399-12.226-7.201
		c-0.822-2.194-1.233-6.139-1.233-11.832V61.226c0-6.173-0.241-11.454-0.719-15.843l14.075-3.19c0.479,2.671,0.72,7.228,0.72,13.665
		v40.995c0,5.275,0,7.844,0,7.706c0.342,3.631,1.574,5.445,3.698,5.445c0.548,0,1.062-0.067,1.541-0.205L344.691,118.104z"/>
	<path fill="#706B6D" d="M394.42,112.47l-7.295,8.425c-3.563-1.507-6.028-3.63-7.397-6.37c-1.371,1.302-2.433,2.227-3.186,2.774
		c-2.671,1.917-6.2,2.877-10.582,2.877c-5.617,0-9.967-1.333-13.049-3.996c-3.356-2.8-5.034-6.931-5.034-12.395
		c0-12.019,8.395-18.029,25.184-18.029c1.091,0,2.114,0,3.07,0v-2.135c0-2.779-0.342-4.677-1.023-5.694
		c-0.819-1.355-2.525-2.034-5.118-2.034c-4.232,0-9.281,1.952-15.148,5.856l-5.834-9.863c2.466-1.575,5.308-3.013,8.527-4.315
		c5.068-2.055,9.864-3.082,14.385-3.082c9.178,0,14.828,3.048,16.952,9.144c0.685,1.987,0.992,5.137,0.925,9.453l-0.308,18.597
		c0,2.74,0.272,4.795,0.821,6.165C390.994,109.423,392.364,110.964,394.42,112.47z M375.823,95.208h-0.607
		c-4.116,0-6.981,0.344-8.6,1.027c-2.698,1.166-4.047,3.494-4.047,6.987c0,1.919,0.529,3.545,1.592,4.881
		c1.062,1.335,2.552,2.003,4.47,2.003c2.603,0,4.999-1.197,7.192-3.596V95.208z"/>
</g>
</svg>
